<svg width="39" height="39" viewBox="0 0 39 39" fill="none" xmlns="http://www.w3.org/2000/svg">
<path d="M27.2009 13.4702L26.805 12.1672C26.3021 10.687 24.6945 9.89486 23.2144 10.3977C22.3817 10.6806 21.7278 11.3345 21.4449 12.1672L21.049 13.4702C20.7159 14.5691 20.646 15.731 20.8449 16.8619C21.0264 17.814 21.6309 18.632 22.4877 19.085L22.0443 28.9966C21.985 29.5499 22.1644 30.1022 22.5377 30.5149C23.3403 31.3929 24.7029 31.4539 25.5808 30.6512C25.6283 30.6078 25.6738 30.5624 25.7172 30.5149C26.0821 30.1139 26.2612 29.5778 26.2105 29.038L25.7647 19.0837C26.6204 18.6306 27.2239 17.8131 27.405 16.8619C27.604 15.731 27.534 14.5691 27.2009 13.4702ZM26.1902 16.6473C26.0567 17.3313 25.5692 17.8926 24.9106 18.1205C24.6606 18.2145 24.4996 18.4587 24.5116 18.7254L24.9803 29.1354C25.0019 29.3396 24.9345 29.5432 24.7953 29.6941C24.424 30.0617 23.826 30.0617 23.4546 29.6941C23.3085 29.531 23.2421 29.3114 23.2733 29.0947L23.7383 18.7254C23.7503 18.4587 23.5893 18.2145 23.3393 18.1205C22.6807 17.8926 22.1933 17.3313 22.0597 16.6473C21.8948 15.7084 21.9529 14.7439 22.2293 13.8316L22.6252 12.5279C22.9316 11.6997 23.8513 11.2766 24.6797 11.5829C25.1176 11.7449 25.4627 12.0901 25.6247 12.5279L26.0206 13.8316C26.2967 14.7439 26.3548 15.7084 26.1902 16.6473Z" fill="white"/>
<path d="M17.6499 10.25C17.3094 10.25 17.0332 10.5261 17.0332 10.8667V16.1614L15.3639 17.8307C15.2404 17.9537 15.1748 18.1234 15.1832 18.2975L15.7228 29.0892C15.7357 29.3219 15.6512 29.5495 15.4897 29.7176C15.1522 30.0581 14.6024 30.0606 14.2618 29.7229C14.2599 29.7212 14.2582 29.7193 14.2564 29.7176C14.0948 29.5495 14.0104 29.3219 14.0233 29.0892L14.5666 18.2975C14.5752 18.1234 14.5098 17.9539 14.3865 17.8307L12.7166 16.1614V10.8667C12.7166 10.5261 12.4405 10.25 12.0999 10.25C11.7594 10.25 11.4832 10.5261 11.4832 10.8667V16.4167C11.4832 16.5802 11.5483 16.737 11.6639 16.8526L13.3203 18.5096L12.7943 29.0294C12.7383 30.1784 13.6245 31.1554 14.7735 31.2113C15.9226 31.2673 16.8996 30.3812 16.9555 29.2321C16.9589 29.1646 16.9589 29.097 16.9555 29.0294L16.4295 18.5097L18.0859 16.8527C18.2015 16.7371 18.2666 16.5803 18.2666 16.4167V10.8667C18.2666 10.5261 17.9905 10.25 17.6499 10.25Z" fill="white"/>
<path d="M13.9501 10.25C13.6095 10.25 13.3334 10.5261 13.3334 10.8667V15.8C13.3334 16.1406 13.6095 16.4167 13.9501 16.4167C14.2906 16.4167 14.5667 16.1406 14.5667 15.8V10.8667C14.5667 10.5261 14.2906 10.25 13.9501 10.25Z" fill="white"/>
<path d="M15.8 10.25C15.4595 10.25 15.1834 10.5261 15.1834 10.8667V15.8C15.1834 16.1406 15.4595 16.4167 15.8 16.4167C16.1406 16.4167 16.4167 16.1406 16.4167 15.8V10.8667C16.4167 10.5261 16.1406 10.25 15.8 10.25Z" fill="white"/>
<path d="M19.5 1C9.28276 1 1 9.28276 1 19.5C1 29.7172 9.28276 38 19.5 38C29.7172 38 38 29.7172 38 19.5C37.9884 9.28754 29.7125 1.01156 19.5 1ZM19.5 36.7667C9.96387 36.7667 2.23333 29.0361 2.23333 19.5C2.23333 9.96387 9.96387 2.23333 19.5 2.23333C29.0361 2.23333 36.7667 9.96387 36.7667 19.5C36.7558 29.0316 29.0316 36.7558 19.5 36.7667Z" fill="white"/>
<path d="M21.5018 31.0758C21.4687 30.7368 21.1671 30.4889 20.8281 30.5219C20.8202 30.5227 20.8122 30.5236 20.8043 30.5247L20.8067 30.5241C19.9385 30.6249 19.0615 30.6249 18.1933 30.5241C17.8549 30.4844 17.5485 30.7265 17.5088 31.0649C17.4691 31.4033 17.7112 31.7097 18.0496 31.7494C19.0125 31.8619 19.9851 31.8619 20.948 31.7494C21.2869 31.7164 21.5349 31.4148 21.5018 31.0758Z" fill="white"/>
<path d="M28.935 11.5536C28.7162 11.2927 28.3272 11.2585 28.0663 11.4775C28.0654 11.4781 28.0646 11.4789 28.0637 11.4796C27.8034 11.6991 27.7702 12.0881 27.9897 12.3485C31.7078 16.7623 31.4233 23.2889 27.3354 27.3625C27.0941 27.6029 27.0934 27.9935 27.3338 28.2348C27.5743 28.476 27.9648 28.4767 28.2061 28.2363C32.7492 23.7105 33.066 16.4584 28.935 11.5536Z" fill="white"/>
<path d="M15.3681 9.15106C15.3677 9.15106 15.3673 9.15097 15.3668 9.15097C15.3661 9.15097 15.3655 9.15106 15.3647 9.15106H15.3681Z" fill="white"/>
<path d="M22.4088 7.51136C19.9988 6.93378 17.4712 7.08902 15.15 7.95721C14.8312 8.07708 14.67 8.43274 14.7899 8.75148C14.8802 8.99175 15.1102 9.15074 15.3668 9.15097C15.4406 9.15059 15.5134 9.13713 15.5823 9.111C17.6726 8.32929 19.9488 8.1897 22.119 8.71016C22.45 8.79018 22.7833 8.58675 22.8633 8.25568C22.9433 7.92461 22.7399 7.59138 22.4088 7.51136Z" fill="white"/>
<path d="M11.6369 27.3317C9.55804 25.2563 8.39293 22.4375 8.40002 19.5C8.39393 17.1531 9.13732 14.8656 10.522 12.9707C10.7266 12.6985 10.6718 12.3119 10.3996 12.1072C10.1273 11.9026 9.74073 11.9574 9.53607 12.2296C9.53245 12.2345 9.5289 12.2394 9.52543 12.2443C5.9601 17.1459 6.48473 23.9115 10.7631 28.2049C11.0042 28.4461 11.3953 28.4463 11.6366 28.2052C11.8779 27.964 11.878 27.5729 11.6369 27.3317Z" fill="white"/>
<path d="M15.3668 9.15097C15.3673 9.15097 15.3677 9.15106 15.3681 9.15106H15.3647C15.3655 9.15106 15.3661 9.15097 15.3668 9.15097ZM15.3668 9.15097C15.1102 9.15074 14.8802 8.99175 14.7899 8.75148C14.67 8.43274 14.8312 8.07708 15.15 7.95721C17.4712 7.08902 19.9988 6.93378 22.4088 7.51136C22.7399 7.59138 22.9433 7.92461 22.8633 8.25568C22.7833 8.58675 22.45 8.79018 22.119 8.71016C19.9488 8.1897 17.6726 8.32929 15.5823 9.111C15.5134 9.13713 15.4406 9.15059 15.3668 9.15097ZM27.2009 13.4702L26.805 12.1672C26.3021 10.687 24.6945 9.89486 23.2144 10.3977C22.3817 10.6806 21.7278 11.3345 21.4449 12.1672L21.049 13.4702C20.7159 14.5691 20.646 15.731 20.8449 16.8619C21.0264 17.814 21.6309 18.632 22.4877 19.085L22.0443 28.9966C21.985 29.5499 22.1644 30.1022 22.5377 30.5149C23.3403 31.3929 24.7029 31.4539 25.5808 30.6512C25.6283 30.6078 25.6738 30.5624 25.7172 30.5149C26.0821 30.1139 26.2612 29.5778 26.2105 29.038L25.7647 19.0837C26.6204 18.6306 27.2239 17.8131 27.405 16.8619C27.604 15.731 27.534 14.5691 27.2009 13.4702ZM26.1902 16.6473C26.0567 17.3313 25.5692 17.8926 24.9106 18.1205C24.6606 18.2145 24.4996 18.4587 24.5116 18.7254L24.9803 29.1354C25.0019 29.3396 24.9345 29.5432 24.7953 29.6941C24.424 30.0617 23.826 30.0617 23.4546 29.6941C23.3085 29.531 23.2421 29.3114 23.2733 29.0947L23.7383 18.7254C23.7503 18.4587 23.5893 18.2145 23.3393 18.1205C22.6807 17.8926 22.1933 17.3313 22.0597 16.6473C21.8948 15.7084 21.9529 14.7439 22.2293 13.8316L22.6252 12.5279C22.9316 11.6997 23.8513 11.2766 24.6797 11.5829C25.1176 11.7449 25.4627 12.0901 25.6247 12.5279L26.0206 13.8316C26.2967 14.7439 26.3548 15.7084 26.1902 16.6473ZM17.6499 10.25C17.3094 10.25 17.0332 10.5261 17.0332 10.8667V16.1614L15.3639 17.8307C15.2404 17.9537 15.1748 18.1234 15.1832 18.2975L15.7228 29.0892C15.7357 29.3219 15.6512 29.5495 15.4897 29.7175C15.1522 30.0581 14.6024 30.0606 14.2618 29.7229C14.2599 29.7212 14.2582 29.7193 14.2564 29.7175C14.0948 29.5495 14.0104 29.3219 14.0233 29.0892L14.5666 18.2975C14.5752 18.1234 14.5098 17.9539 14.3865 17.8307L12.7166 16.1614V10.8667C12.7166 10.5261 12.4405 10.25 12.0999 10.25C11.7594 10.25 11.4832 10.5261 11.4832 10.8667V16.4167C11.4832 16.5802 11.5483 16.737 11.6639 16.8526L13.3203 18.5096L12.7943 29.0294C12.7383 30.1784 13.6245 31.1554 14.7735 31.2113C15.9226 31.2673 16.8996 30.3812 16.9555 29.2321C16.9589 29.1646 16.9589 29.097 16.9555 29.0294L16.4295 18.5097L18.0859 16.8527C18.2015 16.7371 18.2666 16.5803 18.2666 16.4167V10.8667C18.2666 10.5261 17.9905 10.25 17.6499 10.25ZM13.9501 10.25C13.6095 10.25 13.3334 10.5261 13.3334 10.8667V15.8C13.3334 16.1406 13.6095 16.4167 13.9501 16.4167C14.2906 16.4167 14.5667 16.1406 14.5667 15.8V10.8667C14.5667 10.5261 14.2906 10.25 13.9501 10.25ZM15.8 10.25C15.4595 10.25 15.1834 10.5261 15.1834 10.8667V15.8C15.1834 16.1406 15.4595 16.4167 15.8 16.4167C16.1406 16.4167 16.4167 16.1406 16.4167 15.8V10.8667C16.4167 10.5261 16.1406 10.25 15.8 10.25ZM19.5 1C9.28276 1 1 9.28276 1 19.5C1 29.7172 9.28276 38 19.5 38C29.7172 38 38 29.7172 38 19.5C37.9884 9.28754 29.7125 1.01156 19.5 1ZM19.5 36.7667C9.96387 36.7667 2.23333 29.0361 2.23333 19.5C2.23333 9.96387 9.96387 2.23333 19.5 2.23333C29.0361 2.23333 36.7667 9.96387 36.7667 19.5C36.7558 29.0316 29.0316 36.7558 19.5 36.7667ZM21.5018 31.0758C21.4687 30.7368 21.1671 30.4889 20.8281 30.5219C20.8202 30.5227 20.8122 30.5236 20.8043 30.5247L20.8067 30.5241C19.9385 30.6249 19.0615 30.6249 18.1933 30.5241C17.8549 30.4844 17.5485 30.7265 17.5088 31.0649C17.4691 31.4033 17.7112 31.7097 18.0496 31.7494C19.0125 31.8619 19.9851 31.8619 20.948 31.7494C21.2869 31.7164 21.5349 31.4148 21.5018 31.0758ZM28.935 11.5536C28.7162 11.2927 28.3272 11.2585 28.0663 11.4775C28.0654 11.4781 28.0646 11.4789 28.0637 11.4796C27.8034 11.6991 27.7702 12.0881 27.9897 12.3485C31.7078 16.7623 31.4233 23.2889 27.3354 27.3625C27.0941 27.6029 27.0934 27.9935 27.3338 28.2348C27.5743 28.476 27.9648 28.4767 28.2061 28.2363C32.7492 23.7105 33.066 16.4584 28.935 11.5536ZM11.6369 27.3317C9.55804 25.2563 8.39293 22.4375 8.40002 19.5C8.39393 17.1531 9.13732 14.8656 10.522 12.9707C10.7266 12.6985 10.6718 12.3119 10.3996 12.1072C10.1273 11.9026 9.74073 11.9574 9.53607 12.2296C9.53245 12.2345 9.5289 12.2394 9.52543 12.2443C5.9601 17.1459 6.48473 23.9115 10.7631 28.2049C11.0042 28.4461 11.3953 28.4463 11.6366 28.2052C11.8779 27.964 11.878 27.5729 11.6369 27.3317Z" stroke="white" stroke-width="0.3"/>
</svg>
